<svg xmlns="http://www.w3.org/2000/svg" viewBox="0 0 64 80" x="0px" y="0px"><path d="M32,32c.418,0,.829-.027,1.238-.063.165-.015.33-.035.5-.056.219-.027.437-.063.653-.1s.445-.076.665-.126c.031-.007.06-.017.091-.024.31-.072.619-.153.926-.248a7.816,7.816,0,0,0-4.191-4.565h0A8.221,8.221,0,0,1,27,19.312,6.18,6.18,0,0,0,25.843,15.7l-.471-.659A6.21,6.21,0,0,0,19.1,12.583,13.859,13.859,0,0,0,18.071,16.6c-.046.461-.071.928-.071,1.4A14.015,14.015,0,0,0,32,32Z"/><path d="M39.7,11.715l.614,1.074a5.1,5.1,0,0,1-.821,6.128,3.095,3.095,0,0,0,.653,4.874l.446.254a3.085,3.085,0,0,0,2.917.081l1.38-.689A13.937,13.937,0,0,0,45.929,19.4c.046-.461.071-.929.071-1.4a14.238,14.238,0,0,0-.08-1.48c-.02-.193-.059-.379-.087-.569-.043-.289-.082-.578-.142-.862-.05-.236-.117-.464-.179-.7s-.119-.459-.191-.684c-.079-.244-.173-.483-.265-.721-.078-.205-.155-.409-.244-.61-.1-.233-.216-.46-.331-.687-.1-.2-.207-.4-.32-.6s-.24-.406-.367-.6c-.142-.221-.289-.438-.444-.65Q43.179,9.6,43,9.365q-.313-.4-.659-.771c-.083-.092-.164-.186-.25-.275a14.246,14.246,0,0,0-1.04-.982l-.458.327A3.085,3.085,0,0,0,39.7,11.715Z"/><path d="M27,13.878l.471.66A8.166,8.166,0,0,1,29,19.312a6.22,6.22,0,0,0,3.69,5.679h0a9.822,9.822,0,0,1,5.243,5.672,14.06,14.06,0,0,0,5.292-4.331,5.04,5.04,0,0,1-3.623-.55l-.446-.255A5.094,5.094,0,0,1,38.082,17.5a3.1,3.1,0,0,0,.5-3.721l-.614-1.074a5.073,5.073,0,0,1,1.381-6.6,13.932,13.932,0,0,0-19.14,4.379A8.2,8.2,0,0,1,27,13.878Z"/><polygon points="30 48 34 48 34 44 35.826 44 32 39.537 28.174 44 30 44 30 48"/><path d="M4,58v1a1,1,0,0,0,1,1H59a1,1,0,0,0,1-1V58Z"/><path d="M58,21a1,1,0,0,0-1-1H47.861c-.056.449-.122.895-.215,1.332-.014.062-.034.122-.048.184-.037.163-.083.323-.125.484H56V54H8V22h8.527a15.741,15.741,0,0,1-.388-2H7a1,1,0,0,0-1,1V56H58Z"/><path d="M10,52H54V24H46.822c-.071.174-.147.346-.224.517-.009.021-.015.043-.025.064l-.146.324-.021.01a16.076,16.076,0,0,1-7.957,7.716l.005.021-.221.083c-.04.017-.081.029-.121.046l-.469.177c-.043.016-.086.026-.128.042-.388.143-.781.275-1.183.388-.092.026-.186.047-.278.072-.366.1-.733.186-1.109.256-.2.038-.392.061-.588.091-.282.041-.561.09-.848.117-.5.048-1,.076-1.509.076A16.017,16.017,0,0,1,17.178,24H10ZM32,36.463,40.174,46H36v4H28V46H23.826Z"/><text x="0" y="79" fill="#000000" font-size="5px" font-weight="bold" font-family="'Helvetica Neue', Helvetica, Arial-Unicode, Arial, Sans-serif">Created by mynamepong</text><text x="0" y="84" fill="#000000" font-size="5px" font-weight="bold" font-family="'Helvetica Neue', Helvetica, Arial-Unicode, Arial, Sans-serif">from the Noun Project</text></svg>